<svg width="12" height="21" viewBox="0 0 12 21" fill="none" xmlns="http://www.w3.org/2000/svg">
<path fill-rule="evenodd" clip-rule="evenodd" d="M10.8273 0.0043299L8.12873 0C5.09694 0 3.13766 2.01015 3.13766 5.1214V7.48271H0.42433C0.189866 7.48271 0 7.67279 0 7.90726V11.3285C0 11.563 0.190082 11.7529 0.42433 11.7529H3.13766V20.3858C3.13766 20.6203 3.32753 20.8101 3.56199 20.8101H7.10211C7.33658 20.8101 7.52644 20.6201 7.52644 20.3858V11.7529H10.699C10.9334 11.7529 11.1233 11.563 11.1233 11.3285L11.1246 7.90726C11.1246 7.79468 11.0798 7.68687 11.0003 7.6072C10.9209 7.52753 10.8126 7.48271 10.7 7.48271H7.52644V5.481C7.52644 4.5189 7.75571 4.03048 9.009 4.03048L10.8269 4.02984C11.0612 4.02984 11.251 3.83975 11.251 3.60551V0.42866C11.251 0.194629 11.0614 0.00476289 10.8273 0.0043299Z" fill="white"/>
</svg>
