<svg width="40" height="40" xmlns="http://www.w3.org/2000/svg"><path d="M20 0c11.046 0 20 8.954 20 20s-8.954 20-20 20S0 31.046 0 20 8.954 0 20 0zm.204 10C14.563 10 10 14.548 10 20.17c0 5.623 4.563 10.17 10.204 10.17 5.89 0 9.796-4.126 9.796-9.937 0-.669-.073-1.177-.16-1.686h-9.636v3.487h5.787c-.233 1.497-1.749 4.388-5.787 4.388-3.484 0-6.326-2.877-6.326-6.422s2.842-6.422 6.326-6.422c1.983 0 3.31.843 4.067 1.57l2.77-2.66C25.262 11.003 22.959 10 20.204 10z" fill="#EA4335" fill-rule="evenodd"/></svg>