<svg width="18" height="18" viewBox="0 0 18 18" fill="none" xmlns="http://www.w3.org/2000/svg">
<path d="M16.3125 0H1.6875C0.759375 0 0 0.759375 0 1.6875V16.3125C0 17.2406 0.759375 18 1.6875 18H16.3125C17.2406 18 18 17.2406 18 16.3125V1.6875C18 0.759375 17.2406 0 16.3125 0ZM6.75 14.625H4.5V6.75H6.75V14.625ZM5.625 5.625C5.00288 5.625 4.5 5.12212 4.5 4.5C4.5 3.87788 5.00288 3.375 5.625 3.375C6.24712 3.375 6.75 3.87788 6.75 4.5C6.75 5.12212 6.24712 5.625 5.625 5.625ZM14.625 14.625H12.375V10.125C12.375 9.50288 11.8721 9 11.25 9C10.6279 9 10.125 9.50288 10.125 10.125V14.625H7.875V6.75H10.125V8.14613C10.5885 7.50938 11.2995 6.75 12.0938 6.75C13.4932 6.75 14.625 8.00887 14.625 9.5625V14.625Z" fill="white"/>
</svg>
