<svg width="18" height="15" viewBox="0 0 18 15" fill="none" xmlns="http://www.w3.org/2000/svg">
<path d="M1.10353 6.48177L11.8255 2.06412C12.8839 1.60395 16.4733 0.131396 16.4733 0.131396C16.4733 0.131396 18.1299 -0.512845 17.9918 1.05174C17.9458 1.69598 17.5777 3.95082 17.2095 6.38973L16.0591 13.6144C16.0591 13.6144 15.9671 14.6728 15.1848 14.8569C14.4025 15.041 13.114 14.2127 12.8839 14.0286C12.6999 13.8905 9.43264 11.8198 8.23619 10.8074C7.91407 10.5313 7.54594 9.97907 8.28221 9.33483C9.93883 7.81627 11.9176 5.92956 13.114 4.73311C13.6662 4.18091 14.2184 2.89243 11.9176 4.45701L5.42915 8.82864C5.42915 8.82864 4.69287 9.28882 3.31236 8.87466C1.93184 8.46051 0.321243 7.9083 0.321243 7.9083C0.321243 7.9083 -0.783169 7.21804 1.10353 6.48177V6.48177Z" fill="white"/>
</svg>
