<svg width="21" height="15" viewBox="0 0 21 15" fill="none" xmlns="http://www.w3.org/2000/svg">
<path fill-rule="evenodd" clip-rule="evenodd" d="M15.3511 0.0621338C18.0239 0.0621338 19.4234 0.429702 20.1815 1.3308C20.943 2.2359 21 3.62224 21 5.63384V9.26948C21 11.5746 20.6364 12.9061 19.7843 13.7215C18.9534 14.5168 17.669 14.8411 15.3511 14.8411H5.64873C0.8736 14.8411 0 12.9649 0 9.26948V5.63384C0 3.72636 0 2.34815 0.736287 1.41277C1.49147 0.453411 2.91473 0.0621338 5.64873 0.0621338H15.3511ZM9.07627 10.2562L13.4821 7.9536C13.7059 7.83667 13.846 7.60493 13.8458 7.35225C13.8454 7.09978 13.7047 6.86837 13.4805 6.75199L9.07471 4.46421C8.86478 4.35514 8.61312 4.36354 8.41077 4.48643C8.20849 4.60931 8.08507 4.82879 8.08507 5.06535V9.65581C8.08507 9.89278 8.20883 10.1125 8.41152 10.2353C8.51916 10.3004 8.64069 10.3332 8.76249 10.3332C8.87006 10.3332 8.97777 10.3077 9.07627 10.2562Z" fill="white"/>
</svg>
