<svg width="21" height="24" fill="none" xmlns="http://www.w3.org/2000/svg"><path d="M16.727 12.763c-.028-3.032 2.546-4.507 2.664-4.576-1.458-2.072-3.717-2.355-4.512-2.378-1.897-.195-3.739 1.107-4.705 1.107-.986 0-2.475-1.088-4.08-1.056-2.065.031-3.996 1.197-5.056 3.007-2.186 3.69-.555 9.113 1.54 12.097 1.047 1.46 2.272 3.092 3.874 3.035 1.568-.063 2.154-.975 4.046-.975 1.875 0 2.425.974 4.06.938 1.682-.026 2.741-1.468 3.753-2.942 1.21-1.674 1.697-3.324 1.716-3.408-.04-.013-3.268-1.215-3.3-4.849zM13.64 3.847C14.482 2.818 15.06 1.42 14.9 0c-1.22.053-2.747.823-3.626 1.829-.778.886-1.473 2.339-1.293 3.704 1.37.1 2.779-.674 3.659-1.686z" fill="#448AFF"/></svg>